<svg xmlns="http://www.w3.org/2000/svg" width="1200" height="630" viewBox="0 0 1200 630" role="img" aria-labelledby="title description">
  <title id="title">Electronic Artefacts — Creative Technology Studio</title>
  <desc id="description">Electronic Artefacts builds digital products, knowledge systems and cultural technology.</desc>
  <defs>
    <linearGradient id="background" x1="48" y1="36" x2="1128" y2="594" gradientUnits="userSpaceOnUse">
      <stop stop-color="#171717"/>
      <stop offset="0.52" stop-color="#050505"/>
      <stop offset="1" stop-color="#101010"/>
    </linearGradient>
    <radialGradient id="halo" cx="0" cy="0" r="1" gradientTransform="translate(1054 92) rotate(126) scale(498 644)" gradientUnits="userSpaceOnUse">
      <stop stop-color="#3A3A3A" stop-opacity=".78"/>
      <stop offset="1" stop-color="#111" stop-opacity="0"/>
    </radialGradient>
  </defs>
  <rect width="1200" height="630" fill="#000"/>
  <rect x="18" y="18" width="1164" height="594" rx="18" fill="url(#background)" stroke="#333" stroke-width="2"/>
  <rect x="18" y="18" width="1164" height="594" rx="18" fill="url(#halo)"/>
  <g fill="none" stroke="#343434" stroke-width="1">
    <path d="M68 122H1132"/><path d="M68 505H1132"/>
    <path d="M68 122V505"/><path d="M1132 122V505"/>
  </g>
  <g transform="translate(875 174) scale(.9)">
    <circle cx="80" cy="80" r="78" fill="#090909" stroke="#414141" stroke-width="2"/>
    <path d="M35 42h74v19H57v25h46v18H57v28h56v19H35V42Z" fill="#f5f5f3"/>
    <path d="m119 151 30-109h20l30 109h-21l-6-23h-37l-6 23h-21l30-109Zm31-76-10 36h27l-10-36-3-12h-1l-3 12Z" fill="#f5f5f3"/>
  </g>
  <text x="91" y="351" fill="#F5F5F3" font-family="Arial, Helvetica, sans-serif" font-size="72" letter-spacing="-3">electronic</text>
  <text x="445" y="351" fill="#F5F5F3" font-family="Arial, Helvetica, sans-serif" font-size="72" font-weight="700" letter-spacing="-3">Artefacts</text>
  <text x="95" y="418" fill="#BABABA" font-family="Arial, Helvetica, sans-serif" font-size="22" font-weight="700" letter-spacing="3">CREATIVE TECHNOLOGY STUDIO</text>
  <text x="95" y="461" fill="#909090" font-family="Arial, Helvetica, sans-serif" font-size="19">Digital products · knowledge systems · cultural technology</text>
  <circle cx="1085" cy="115" r="8" fill="#F5F5F3"/>
</svg>
