<?xml version="1.0" encoding="UTF-8"?>
<svg id="Calque_2" data-name="Calque 2" xmlns="http://www.w3.org/2000/svg" viewBox="0 0 100.38 99.74">
  <defs>
    <style>
      .cls-1 {
        fill: currentColor;
      }
    </style>
  </defs>
  <g id="Calque_1-2" data-name="Calque 1">
    <g>
      <path class="cls-1" d="M15.57,59.28c-.08-1.97-1.73-3.5-3.7-3.43l.28,7.13c1.97-.08,3.5-1.73,3.43-3.7Z"/>
      <path class="cls-1" d="M28.95,78.92c-1.76-.88-3.91-.16-4.78,1.6l6.39,3.18c.88-1.76.16-3.91-1.6-4.78Z"/>
      <path class="cls-1" d="M12.96,36.83c1.28.37,2.69-.61,3.15-2.19.46-1.58-.21-3.16-1.49-3.53s-2.69.61-3.15,2.19c-.46,1.58.21,3.16,1.49,3.53Z"/>
      <ellipse class="cls-1" cx="17.79" cy="21.62" rx="2.17" ry="2.68"/>
      <path class="cls-1" d="M40.18,85.05c-1.47-.21-2.74.24-2.86,1.01-.11.77.99,1.56,2.45,1.77,1.47.21,2.74-.24,2.86-1.01.11-.77-.99-1.56-2.45-1.77Z"/>
      <path class="cls-1" d="M12.08,48.55c.77.11,1.56-.99,1.77-2.45.21-1.47-.24-2.74-1.01-2.86-.77-.11-1.56.99-1.77,2.45-.21,1.47.24,2.74,1.01,2.86Z"/>
      <path class="cls-1" d="M52.17,87.96c-1.58-.23-2.98.4-3.12,1.39-.14,1,1.02,1.99,2.6,2.22,1.58.23,2.98-.4,3.12-1.39.14-1-1.02-1.99-2.6-2.22Z"/>
      <path class="cls-1" d="M60.76,84.36c-23.06,0-41.76-18.5-41.76-41.33S37.7,1.71,60.76,1.71c1.07,0,2.12.05,3.17.13-4.31-1.19-8.85-1.84-13.54-1.84C22.56,0,0,22.33,0,49.87s22.56,49.87,50.39,49.87c25.7,0,46.89-19.04,49.99-43.64-5.53,16.42-21.17,28.26-39.62,28.26ZM17.28,17.91c1.99,0,3.6,1.61,3.6,3.61s-1.61,3.6-3.6,3.6-3.61-1.61-3.61-3.6,1.61-3.61,3.61-3.61ZM12.82,29.48c2.31,0,4.19,1.87,4.19,4.19s-1.87,4.19-4.19,4.19-4.19-1.87-4.19-4.19,1.87-4.19,4.19-4.19ZM10.64,41.45c2.31,0,4.19,1.87,4.19,4.19s-1.87,4.19-4.19,4.19-4.19-1.87-4.19-4.19,1.87-4.19,4.19-4.19ZM7.11,59.35c0-2.5,2.03-4.53,4.54-4.53s4.54,2.03,4.54,4.53-2.03,4.54-4.54,4.54-4.54-2.03-4.54-4.54ZM17.59,78.11c-3.29,0-5.95-2.66-5.95-5.95s2.66-5.95,5.95-5.95,5.95,2.66,5.95,5.95-2.66,5.95-5.95,5.95ZM27.25,87.18c-2.5,0-4.54-2.03-4.54-4.54s2.03-4.54,4.54-4.54,4.54,2.03,4.54,4.54-2.03,4.54-4.54,4.54ZM39.72,92.78c-2.31,0-4.19-1.87-4.19-4.19s1.87-4.19,4.19-4.19,4.19,1.87,4.19,4.19-1.87,4.19-4.19,4.19ZM51.55,94.82c-2.11,0-3.82-1.71-3.82-3.82s1.71-3.82,3.82-3.82,3.82,1.71,3.82,3.82-1.71,3.82-3.82,3.82ZM64.6,94.73c-1.95,0-3.52-1.58-3.52-3.52s1.58-3.52,3.52-3.52,3.52,1.58,3.52,3.52-1.58,3.52-3.52,3.52Z"/>
      <path class="cls-1" d="M65.13,88.38c-1.4-.2-2.68.65-2.86,1.91s.8,2.44,2.2,2.64c1.4.2,2.68-.65,2.86-1.91.18-1.26-.8-2.44-2.2-2.64Z"/>
    </g>
    <g>
      <path class="cls-1" d="M48.78,49.17c0,4.54,3.68,8.23,8.23,8.23s8.23-3.68,8.23-8.23-3.68-8.23-8.23-8.23-8.23,3.68-8.23,8.23ZM51.63,49.31c-.46,0-.82-.37-.82-.82s.37-.82.82-.82.82.37.82.82-.37.82-.82.82ZM55.02,46.06c-.97,0-1.75-.78-1.75-1.75s.78-1.75,1.75-1.75,1.75.78,1.75,1.75-.78,1.75-1.75,1.75ZM61.31,43.38c1.74,0,3.15,1.41,3.15,3.15s-1.41,3.15-3.15,3.15-3.15-1.41-3.15-3.15,1.41-3.15,3.15-3.15Z"/>
      <path class="cls-1" d="M85.21,42.09c-.16-.23-.47-.29-.69-.13l-5.06,3.42c-.77-1.35-1.82-2.93-3.22-4.51l4.34-4.6c.19-.2.18-.52-.02-.71-.2-.19-.52-.18-.71.02l-4.3,4.55c-1.32-1.38-2.91-2.72-4.81-3.88l3.13-5.03c.15-.23.07-.54-.16-.69-.23-.15-.54-.07-.69.16l-3.14,5.05c-1.64-.91-3.5-1.67-5.59-2.22l1.26-5.91c.06-.27-.12-.54-.38-.59-.26-.06-.54.11-.59.38l-1.26,5.88c-1.77-.39-3.7-.61-5.81-.63v-6.19c0-.28-.22-.5-.5-.5s-.5.22-.5.5v6.19c-2.1.02-4.04.24-5.81.63l-1.26-5.88c-.06-.27-.33-.45-.59-.38-.27.06-.44.32-.38.59l1.26,5.91c-2.09.54-3.95,1.31-5.59,2.22l-3.14-5.04c-.15-.24-.45-.31-.69-.16-.23.15-.31.45-.16.69l3.12,5.02c-1.9,1.16-3.5,2.51-4.81,3.89l-4.29-4.54c-.19-.2-.51-.21-.71-.02-.2.19-.21.51-.02.71l4.34,4.59c-1.4,1.58-2.45,3.17-3.22,4.52l-5.05-3.42c-.23-.15-.54-.09-.69.13-.15.23-.09.54.13.69l5.13,3.48c-.88,1.69-1.24,2.85-1.24,2.85v.58l.1.13c.09.12,9.43,12.18,23.27,12.18.26,0,.52,0,.78-.01,14.29.47,23.99-12.04,24.09-12.16l.1-.13v-.58s-.37-1.15-1.25-2.84l5.14-3.48c.23-.15.29-.47.13-.69ZM68.34,49.17c0,6.25-5.08,11.33-11.33,11.33s-11.33-5.08-11.33-11.33c0-3.47,1.57-6.57,4.03-8.65,2.26-.54,4.71-.86,7.32-.78,2.6-.07,5.04.24,7.29.78,2.46,2.08,4.02,5.18,4.02,8.65ZM33.9,49.43c1.05-1.07,6.17-5.97,13.84-8.37-1.9,2.17-3.07,5.01-3.07,8.11,0,5.29,3.36,9.81,8.05,11.55-10.47-1.6-17.65-9.86-18.83-11.3ZM61.28,60.72c4.7-1.74,8.06-6.26,8.06-11.55,0-3.11-1.16-5.94-3.06-8.11,7.67,2.4,12.79,7.3,13.84,8.36-1.18,1.44-8.34,9.7-18.84,11.3Z"/>
    </g>
  </g>
</svg>
